<?xml version="1.0" encoding="UTF-8"?>
<svg version="1.1" xmlns="http://www.w3.org/2000/svg" width="512" height="512">
<path d="M0 0 C4.15502798 0.65847495 6.20724219 2.6811382 9.0546875 5.56640625 C10.11645041 6.59321065 11.17894948 7.61925438 12.2421875 8.64453125 C12.75007813 9.14275391 13.25796875 9.64097656 13.78125 10.15429688 C15.47506796 11.78897314 17.24921092 13.30665428 19.0546875 14.81640625 C29.03036558 23.50086921 38.03511888 33.09607198 46.1796875 43.50390625 C46.80746094 44.25285156 47.43523437 45.00179687 48.08203125 45.7734375 C69.37068912 71.32853396 87.81703144 104.9546481 91.1796875 138.50390625 C92.05367188 138.189375 92.92765625 137.87484375 93.828125 137.55078125 C144.33785326 119.97297225 204.90991914 124.60369442 253.53955078 146.66967773 C255.1796875 147.50390625 255.1796875 147.50390625 256.1796875 148.50390625 C256.63777655 156.10976402 255.26904709 162.92703379 253.5546875 170.31640625 C253.28108398 171.51056152 253.00748047 172.7047168 252.72558594 173.93505859 C245.44517214 205.11712939 234.25499362 236.4651874 215.1796875 262.50390625 C214.42300781 263.54417969 213.66632813 264.58445312 212.88671875 265.65625 C200.11932505 282.87911959 185.29371444 297.01457742 167.1796875 308.50390625 C168.73443384 312.51645519 171.56744515 314.83010177 174.7421875 317.56640625 C211.64806075 350.41534914 226.95687175 403.09280792 232.1796875 450.50390625 C232.37691406 452.16873047 232.37691406 452.16873047 232.578125 453.8671875 C233.2164357 460.10365558 233.3349512 466.36410544 233.4296875 472.62890625 C233.45119873 473.47219482 233.47270996 474.3154834 233.49487305 475.18432617 C233.5078125 477.57421875 233.5078125 477.57421875 233.1796875 481.50390625 C230.01151382 483.61602203 228.13084216 484.05746117 224.4296875 484.72265625 C223.27476807 484.93188721 222.11984863 485.14111816 220.92993164 485.35668945 C214.68419618 486.43457792 208.43725948 487.49668519 202.1796875 488.50390625 C201.32777832 488.64393066 200.47586914 488.78395508 199.59814453 488.92822266 C150.69408859 496.61671889 94.69679002 488.78753327 54.10498047 459.28564453 C48.82827136 455.34355268 43.93441481 451.06183194 39.1796875 446.50390625 C38.35984375 445.74722656 37.54 444.99054688 36.6953125 444.2109375 C18.36618724 426.76411486 5.40854878 401.81620958 -0.34765625 377.3046875 C-0.66073845 375.49533884 -0.66073845 375.49533884 -1.8203125 374.50390625 C-2.17222656 375.76203125 -2.52414063 377.02015625 -2.88671875 378.31640625 C-13.86410083 416.73535673 -35.60802306 448.14316131 -70.6953125 468.25390625 C-100.05825855 484.47639058 -133.05111511 490.72535909 -166.3203125 490.75390625 C-167.54451904 490.75541687 -167.54451904 490.75541687 -168.79345703 490.75695801 C-189.13966898 490.74006576 -208.89135665 488.41993703 -228.84765625 484.46875 C-229.54624756 484.33073975 -230.24483887 484.19272949 -230.96459961 484.05053711 C-232.8203125 483.50390625 -232.8203125 483.50390625 -235.8203125 481.50390625 C-236.1380583 478.44170902 -236.24380185 475.63020473 -236.1953125 472.56640625 C-236.1811731 471.17869019 -236.1811731 471.17869019 -236.16674805 469.76293945 C-235.59939019 442.40996173 -230.45649994 415.41810209 -221.8203125 389.50390625 C-221.59263184 388.81425781 -221.36495117 388.12460937 -221.13037109 387.4140625 C-213.86526777 365.79260924 -202.62572381 345.84488996 -187.8203125 328.50390625 C-187.12421875 327.68535156 -186.428125 326.86679687 -185.7109375 326.0234375 C-180.16101239 319.67644867 -174.1456954 314.06078468 -167.8203125 308.50390625 C-168.83609375 307.76527344 -169.851875 307.02664063 -170.8984375 306.265625 C-196.27286477 287.64264654 -215.4792966 265.5306368 -229.8203125 237.50390625 C-230.16900391 236.83101562 -230.51769531 236.158125 -230.87695312 235.46484375 C-241.43666294 214.87038101 -262.7842433 171.87933832 -255.8203125 148.50390625 C-228.34113806 126.11561044 -167.97155488 125.10002439 -134.5234375 127.96484375 C-119.80940862 129.53577616 -104.45563391 132.5914951 -90.8203125 138.50390625 C-90.6965625 137.62734375 -90.5728125 136.75078125 -90.4453125 135.84765625 C-82.14368704 84.79265966 -48.26863994 37.02042877 -8.09765625 5.34375 C-5.83704781 3.64440344 -5.83704781 3.64440344 -4.38671875 1.7578125 C-2.8203125 0.50390625 -2.8203125 0.50390625 0 0 Z M-20.9453125 29.37890625 C-27.33873627 35.80966483 -33.29041202 42.31293301 -38.8203125 49.50390625 C-39.66898097 50.54273559 -40.52072416 51.57905818 -41.375 52.61328125 C-63.93173109 80.15389885 -82.48109875 116.23353384 -83.8203125 152.50390625 C-83.871875 153.63054687 -83.9234375 154.7571875 -83.9765625 155.91796875 C-84.93410368 195.73572294 -67.99433646 230.86613046 -40.96875 259.296875 C-33.31226319 267.18646891 -25.06556645 275.49554899 -15.8203125 281.50390625 C-15.1603125 281.50390625 -14.5003125 281.50390625 -13.8203125 281.50390625 C-14.97515518 277.67400427 -16.4240312 274.04509608 -18.03515625 270.390625 C-35.4858081 230.80079612 -53.01867707 183.92701534 -40.8203125 140.50390625 C-38.8403125 140.50390625 -36.8603125 140.50390625 -34.8203125 140.50390625 C-33.83679487 143.59298276 -33.85622151 145.51392462 -34.6953125 148.62890625 C-44.9160675 190.89310938 -23.7495031 241.64839608 -4.8203125 278.50390625 C-4.4903125 278.50390625 -4.1603125 278.50390625 -3.8203125 278.50390625 C-3.4903125 223.06390625 -3.1603125 167.62390625 -2.8203125 110.50390625 C-0.8403125 110.50390625 1.1396875 110.50390625 3.1796875 110.50390625 C3.5096875 165.94390625 3.8396875 221.38390625 4.1796875 278.50390625 C24.47337678 251.44565388 35.44575496 207.09884923 37.1796875 173.50390625 C37.2209375 172.7253125 37.2621875 171.94671875 37.3046875 171.14453125 C37.53217843 162.44300305 36.16310599 153.70808358 34.55078125 145.17578125 C34.1796875 142.50390625 34.1796875 142.50390625 35.1796875 140.50390625 C37.1596875 140.50390625 39.1396875 140.50390625 41.1796875 140.50390625 C53.67647472 184.98932491 35.02885598 232.65943926 17.19873047 273.10302734 C16.02979606 275.8570525 15.04337803 278.63957664 14.1796875 281.50390625 C41.51800752 269.01526461 65.37460413 234.35401806 75.73022461 207.17797852 C80.15814138 194.90721526 83.70314795 181.5888881 84.1796875 168.50390625 C84.23125 167.37597656 84.2828125 166.24804688 84.3359375 165.0859375 C84.94888633 139.62302156 78.38147993 115.22549072 67.1796875 92.50390625 C66.83035156 91.78750977 66.48101562 91.07111328 66.12109375 90.33300781 C55.05067246 67.85761954 39.47516965 48.5005566 22.1796875 30.50390625 C21.70789063 30.01019531 21.23609375 29.51648438 20.75 29.0078125 C14.68530695 22.69182001 8.43612739 16.45987009 1.1796875 11.50390625 C-6.07031832 11.50390625 -16.04297658 24.5002726 -20.9453125 29.37890625 Z M-246.8203125 153.50390625 C-242.69848228 194.39572685 -224.68453816 238.34410732 -197.8203125 269.50390625 C-197.3680127 270.02919922 -196.91571289 270.55449219 -196.44970703 271.09570312 C-172.64854861 298.43704094 -141.30564412 316.45690321 -104.8203125 319.50390625 C-75.2530758 321.1043943 -46.71083171 314.67306831 -19.8203125 302.50390625 C-22.41861057 299.90560818 -23.78233787 300.12107905 -27.41015625 299.828125 C-28.57337402 299.7252417 -29.7365918 299.6223584 -30.93505859 299.51635742 C-32.19656738 299.40912354 -33.45807617 299.30188965 -34.7578125 299.19140625 C-74.5896849 295.41258628 -124.50438948 287.36448805 -153.71484375 257.11328125 C-154.8203125 255.50390625 -154.8203125 255.50390625 -154.7578125 252.56640625 C-154.4484375 251.88578125 -154.1390625 251.20515625 -153.8203125 250.50390625 C-147.84383119 250.62587526 -147.84383119 250.62587526 -145.25390625 252.84765625 C-144.73957031 253.41484375 -144.22523438 253.98203125 -143.6953125 254.56640625 C-115.92734944 284.88131894 -56.73962657 290.0082343 -18.8203125 292.50390625 C-21.3286637 289.68606588 -24.11954188 288.04666902 -27.39453125 286.203125 C-28.5247168 285.56294434 -29.65490234 284.92276367 -30.81933594 284.26318359 C-31.41999878 283.92583191 -32.02066162 283.58848022 -32.63952637 283.24090576 C-35.82910589 281.44917692 -39.00944403 279.64114731 -42.19140625 277.8359375 C-42.83751862 277.47000488 -43.48363098 277.10407227 -44.14932251 276.72705078 C-50.15092185 273.32534832 -56.11616361 269.862976 -62.0703125 266.37890625 C-63.04460205 265.80930176 -64.0188916 265.23969727 -65.02270508 264.65283203 C-66.97989923 263.50806728 -68.9368509 262.36288786 -70.89355469 261.21728516 C-75.8253931 258.33009447 -80.75987066 255.44743208 -85.6953125 252.56640625 C-86.68047852 251.99132324 -87.66564453 251.41624023 -88.68066406 250.82373047 C-96.04753675 246.52778376 -103.43105363 242.26121007 -110.8203125 238.00390625 C-122.32623531 231.37246897 -133.82458308 224.72884552 -145.27246094 217.99755859 C-147.56673068 216.65256604 -149.86831212 215.32116609 -152.171875 213.9921875 C-153.36774495 213.28870718 -154.56311434 212.58437474 -155.7578125 211.87890625 C-156.73621094 211.30914062 -157.71460938 210.739375 -158.72265625 210.15234375 C-160.8203125 208.50390625 -160.8203125 208.50390625 -161.69921875 206.41796875 C-161.8203125 204.50390625 -161.8203125 204.50390625 -160.8203125 202.50390625 C-156.001841 202.17080361 -153.4036536 202.91761015 -149.3125 205.44140625 C-148.25780518 206.08094238 -147.20311035 206.72047852 -146.11645508 207.37939453 C-145.5601944 207.72488342 -145.00393372 208.07037231 -144.43081665 208.42633057 C-142.05063002 209.90419003 -139.65304462 211.3526713 -137.25587463 212.80276489 C-136.00116112 213.56185955 -134.74729532 214.32235701 -133.49424744 215.084198 C-126.94516241 219.05880714 -120.2962614 222.85034503 -113.6328125 226.62890625 C-104.87841495 231.60671574 -96.14336031 236.61559416 -87.4453125 241.69140625 C-86.48133545 242.25303467 -85.5173584 242.81466309 -84.52416992 243.39331055 C-79.49799777 246.32888707 -74.49276228 249.29569145 -69.5078125 252.30078125 C-68.48993652 252.91155518 -67.47206055 253.5223291 -66.42333984 254.15161133 C-64.47672866 255.32152497 -62.53414741 256.49817731 -60.59619141 257.68237305 C-59.73429199 258.19968994 -58.87239258 258.71700684 -57.984375 259.25 C-57.22592285 259.71075928 -56.4674707 260.17151855 -55.68603516 260.64624023 C-55.07034668 260.92927002 -54.4546582 261.2122998 -53.8203125 261.50390625 C-53.1603125 261.17390625 -52.5003125 260.84390625 -51.8203125 260.50390625 C-52.53316406 259.60929687 -53.24601563 258.7146875 -53.98046875 257.79296875 C-75.04741441 231.25193485 -75.04741441 231.25193485 -79.3203125 218.14453125 C-82.06213735 209.84635334 -84.45650305 204.52981877 -92.3828125 200.25390625 C-95.14862232 198.87132468 -97.95065706 197.65375894 -100.8203125 196.50390625 C-101.50303223 196.22595215 -102.18575195 195.94799805 -102.88916016 195.66162109 C-109.66894727 192.7073096 -109.66894727 192.7073096 -116.8203125 191.50390625 C-116.86285606 189.50435879 -116.86112033 187.50348989 -116.8203125 185.50390625 C-115.8203125 184.50390625 -115.8203125 184.50390625 -114.02734375 184.4140625 C-105.82211359 184.93609182 -99.19071817 188.1301965 -91.8203125 191.50390625 C-90.8303125 191.83390625 -89.8403125 192.16390625 -88.8203125 192.50390625 C-88.91119141 191.81055176 -89.00207031 191.11719727 -89.09570312 190.40283203 C-90.90486984 176.37251224 -92.31399447 162.65612267 -91.8203125 148.50390625 C-139.88613192 125.11784504 -198.80808392 137.20092124 -246.8203125 153.50390625 Z M92.1796875 148.50390625 C92.20289063 149.58285156 92.22609375 150.66179687 92.25 151.7734375 C92.4498259 165.5211497 91.17759374 178.91454397 89.1796875 192.50390625 C90.17162109 192.10558594 90.17162109 192.10558594 91.18359375 191.69921875 C92.66666016 191.10753906 92.66666016 191.10753906 94.1796875 190.50390625 C94.77894043 190.26381836 95.37819336 190.02373047 95.99560547 189.77636719 C98.03199677 188.96627177 100.07407011 188.17187103 102.1171875 187.37890625 C102.80748047 187.10175781 103.49777344 186.82460937 104.20898438 186.5390625 C108.35912351 184.94194734 111.65648046 184.17829197 116.1796875 184.50390625 C117.1796875 189.25390625 117.1796875 189.25390625 117.1796875 191.50390625 C115.4471875 191.75140625 115.4471875 191.75140625 113.6796875 192.00390625 C106.67441709 193.53839405 100.36121237 197.09490524 94.09716797 200.49047852 C92.1796875 201.50390625 92.1796875 201.50390625 90.26611328 202.34350586 C85.46046981 204.61344088 83.97772727 207.11578299 82.17871094 211.84838867 C81.8902832 212.66283447 81.60185547 213.47728027 81.3046875 214.31640625 C75.82262406 228.40605953 68.08840683 240.01510275 58.87890625 251.9453125 C56.49430825 255.04403264 54.3073303 258.22400084 52.1796875 261.50390625 C55.98930814 260.07970025 59.42372718 258.32481742 62.94921875 256.30078125 C64.6345874 255.33579712 64.6345874 255.33579712 66.35400391 254.35131836 C67.56680471 253.65230753 68.77953069 252.95316686 69.9921875 252.25390625 C71.25428728 251.52919145 72.51649581 250.80466601 73.77880859 250.08032227 C82.61818768 245.00260972 91.43089158 239.87927127 100.22875977 234.72998047 C108.69563093 229.77557904 117.19472917 224.87822301 125.70654297 220.00146484 C130.86816044 217.03398441 135.99371735 214.02715782 141.0546875 210.890625 C141.96573242 210.32875488 142.87677734 209.76688477 143.81542969 209.18798828 C145.50572343 208.13952629 147.18922726 207.08000223 148.86425781 206.00732422 C153.1314306 203.36307315 155.98086117 201.83335699 161.1796875 202.50390625 C161.5096875 204.15390625 161.8396875 205.80390625 162.1796875 207.50390625 C155.36158443 212.21095133 148.31225877 216.40232623 141.1171875 220.50390625 C138.7926677 221.83671874 136.46845661 223.17005868 134.14453125 224.50390625 C133.55916595 224.83946533 132.97380066 225.17502441 132.37069702 225.52075195 C126.62234202 228.81775929 120.89952527 232.15775585 115.1796875 235.50390625 C106.86240012 240.36532742 98.52762819 245.19531888 90.1796875 250.00390625 C78.83268342 256.54104231 67.51503909 263.12721035 56.20898438 269.73486328 C53.03911752 271.58599604 49.86744365 273.43400029 46.6953125 275.28125 C45.62555176 275.90443115 44.55579102 276.5276123 43.45361328 277.16967773 C41.42620608 278.35062907 39.39855597 279.53116352 37.37060547 280.71118164 C31.27819124 284.261647 25.21713824 287.86075848 19.1796875 291.50390625 C22.40076357 292.57759827 24.05783658 292.47389479 27.39453125 292.12109375 C28.45881348 292.00862305 29.5230957 291.89615234 30.61962891 291.78027344 C31.77382324 291.64782227 32.92801758 291.51537109 34.1171875 291.37890625 C35.31778809 291.24129883 36.51838867 291.10369141 37.75537109 290.96191406 C75.67915087 286.41677888 117.5374435 279.11168539 146.59375 252.375 C149.45569163 250.30419934 150.73394101 250.06230336 154.1796875 250.50390625 C154.9921875 252.69140625 154.9921875 252.69140625 155.1796875 255.50390625 C153.1796875 257.94140625 153.1796875 257.94140625 150.1796875 260.50390625 C149.7053125 260.95507812 149.2309375 261.40625 148.7421875 261.87109375 C117.75365049 290.53549049 64.69639886 297.89406093 24.52539062 300.14916992 C21.99316977 300.29480738 21.99316977 300.29480738 20.1796875 302.50390625 C59.59410249 319.34694259 102.50743188 326.78173359 143.4921875 310.59033203 C161.38030053 303.14308103 176.55940037 292.19921046 190.1796875 278.50390625 C191.02660156 277.65699219 191.87351562 276.81007813 192.74609375 275.9375 C212.52591348 255.14170237 225.77827087 229.40362989 235.1796875 202.50390625 C235.614021 201.26133057 235.614021 201.26133057 236.05712891 199.99365234 C239.17713229 190.90909864 241.73003237 181.71235415 243.9921875 172.37890625 C244.3030127 171.09959229 244.3030127 171.09959229 244.62011719 169.79443359 C245.88333627 164.37196448 246.66098668 159.04786987 247.1796875 153.50390625 C201.03489599 137.83502633 138.1435927 123.43268523 92.1796875 148.50390625 Z M-172.8203125 325.50390625 C-173.31853516 325.99407227 -173.81675781 326.48423828 -174.33007812 326.98925781 C-208.94030333 361.24045578 -226.44690757 416.11986257 -226.91796875 464.078125 C-226.91153153 465.44925372 -226.899934 466.82036932 -226.8828125 468.19140625 C-226.87830078 468.90490234 -226.87378906 469.61839844 -226.86914062 470.35351562 C-226.85761824 472.07035099 -226.8396988 473.78714168 -226.8203125 475.50390625 C-222.73168199 476.20201202 -218.64231231 476.89557314 -214.55224609 477.58520508 C-213.1653236 477.81968016 -211.7785985 478.05532635 -210.39208984 478.29223633 C-161.70682502 486.60564075 -107.16249055 482.77050991 -65.296875 454.17578125 C-58.76675373 449.37471522 -52.7210569 444.05267643 -46.8203125 438.50390625 C-45.93472656 437.715 -45.93472656 437.715 -45.03125 436.91015625 C-19.16047479 412.87853567 -7.59573792 373.84194896 -5.8203125 339.50390625 C-5.62487615 331.8373588 -5.68702467 324.17103218 -5.8203125 316.50390625 C-8.11879019 319.40163894 -9.84784629 322.31920092 -11.5 325.625 C-12.01006592 326.63264404 -12.52013184 327.64028809 -13.0456543 328.6784668 C-13.5900415 329.75523682 -14.13442871 330.83200684 -14.6953125 331.94140625 C-33.23462049 368.06492732 -58.63755848 408.59969527 -96.953125 426.04296875 C-99.22184358 426.60302899 -100.62801715 426.23467137 -102.8203125 425.50390625 C-102.8203125 423.52390625 -102.8203125 421.54390625 -102.8203125 419.50390625 C-102.08167969 419.16359375 -101.34304687 418.82328125 -100.58203125 418.47265625 C-62.04655069 400.06180404 -31.40824897 354.32328472 -15.8203125 315.50390625 C-16.1503125 314.84390625 -16.4803125 314.18390625 -16.8203125 313.50390625 C-17.60792969 314.18195313 -18.39554688 314.86 -19.20703125 315.55859375 C-25.26156602 320.74229008 -31.38000126 325.77382596 -37.73120117 330.59130859 C-42.1704154 333.97111231 -46.50259386 337.47062025 -50.8203125 341.00390625 C-56.62639518 345.75264679 -62.51138218 350.36244452 -68.4765625 354.91015625 C-72.31918311 357.86601826 -76.06778462 360.93503189 -79.8203125 364.00390625 C-84.62208004 367.93003388 -89.45022207 371.80573521 -94.3828125 375.56640625 C-99.05713846 379.13274383 -103.67364971 382.7599709 -108.2578125 386.44140625 C-113.67991416 390.79577097 -119.11552678 395.13094235 -124.60107422 399.40527344 C-127.64410131 401.77850615 -130.65550583 404.18134846 -133.6328125 406.63671875 C-134.26050537 407.14775146 -134.88819824 407.65878418 -135.53491211 408.18530273 C-136.73647281 409.16461677 -137.93049718 410.15327645 -139.11547852 411.15258789 C-141.65570017 413.20759444 -143.3802552 414.44761281 -146.66015625 414.8671875 C-148.8203125 414.50390625 -148.8203125 414.50390625 -149.8203125 413.50390625 C-150.31640625 411.31640625 -150.31640625 411.31640625 -149.8203125 408.50390625 C-147.78637736 406.15910766 -145.35062636 404.37194185 -142.8828125 402.50390625 C-142.16279053 401.93921631 -141.44276855 401.37452637 -140.70092773 400.79272461 C-138.42056451 399.01192359 -136.12340962 397.25517896 -133.8203125 395.50390625 C-133.11003906 394.96137207 -132.39976562 394.41883789 -131.66796875 393.85986328 C-128.86819516 391.72158182 -126.06730783 389.58487271 -123.2590332 387.45776367 C-117.34993087 382.96436268 -111.62429126 378.27093813 -105.91650391 373.52587891 C-100.74710943 369.23780811 -95.47583907 365.12777102 -90.12890625 361.0625 C-86.29413133 358.12316659 -82.55983824 355.06287375 -78.8203125 352.00390625 C-74.01858464 348.07770711 -69.19017741 344.20238225 -64.2578125 340.44140625 C-59.38453957 336.71944405 -54.55471396 332.94886572 -49.7578125 329.12890625 C-48.81023071 328.37855103 -48.81023071 328.37855103 -47.84350586 327.61303711 C-44.65013749 325.06118786 -41.64271195 322.47411215 -38.8203125 319.50390625 C-39.83867187 319.75785156 -40.85703125 320.01179688 -41.90625 320.2734375 C-49.44138253 322.12006292 -56.98324085 323.82547573 -64.6328125 325.12890625 C-65.74354126 325.31984863 -65.74354126 325.31984863 -66.87670898 325.51464844 C-70.83509611 326.15395954 -74.72824079 326.59112035 -78.734375 326.78125 C-92.08948199 327.47654367 -101.58059795 331.32772198 -112.8203125 338.50390625 C-113.47789551 338.92269043 -114.13547852 339.34147461 -114.81298828 339.77294922 C-125.05915503 346.43839499 -135.6231933 354.55295975 -142.8203125 364.50390625 C-142.8203125 365.16390625 -142.8203125 365.82390625 -142.8203125 366.50390625 C-145.1303125 366.17390625 -147.4403125 365.84390625 -149.8203125 365.50390625 C-149.46619427 359.71515726 -147.87621638 356.59817588 -143.8828125 352.56640625 C-143.38483154 352.04771973 -142.88685059 351.5290332 -142.3737793 350.99462891 C-133.33168509 341.74726093 -122.81563437 335.16112346 -111.8203125 328.50390625 C-114.06922692 326.25499183 -114.79389715 326.1418131 -117.828125 325.64453125 C-118.64240967 325.50136475 -119.45669434 325.35819824 -120.2956543 325.21069336 C-121.60723511 324.98458374 -121.60723511 324.98458374 -122.9453125 324.75390625 C-129.71337926 323.50281538 -136.09178921 321.94359328 -142.5078125 319.44140625 C-143.4978125 319.06701416 -143.4978125 319.06701416 -144.5078125 318.68505859 C-147.23645298 317.62833816 -149.79375786 316.51957307 -152.31640625 315.03125 C-160.62190856 310.53561114 -167.34260895 319.95371295 -172.8203125 325.50390625 Z M13.1796875 314.50390625 C14.88071374 320.68850165 18.00066241 326.09508535 21.0546875 331.69140625 C21.63404053 332.75423828 22.21339355 333.81707031 22.81030273 334.91210938 C39.80727276 365.77618441 63.75798443 404.99125422 98.1796875 418.50390625 C98.8396875 418.50390625 99.4996875 418.50390625 100.1796875 418.50390625 C100.1796875 420.81390625 100.1796875 423.12390625 100.1796875 425.50390625 C97.13879531 426.89314634 95.97884949 426.42911141 92.78125 425.23828125 C91.44673508 424.59516187 90.1216104 423.93232108 88.8046875 423.25390625 C88.09715332 422.89184082 87.38961914 422.52977539 86.66064453 422.15673828 C68.17698647 412.33432486 53.36349859 396.25889609 41.1796875 379.50390625 C40.73560547 378.89353516 40.29152344 378.28316406 39.83398438 377.65429688 C28.51572588 361.93901709 18.86561543 345.27100503 10.09985352 328.01733398 C9.39493774 326.63396851 9.39493774 326.63396851 8.67578125 325.22265625 C8.26513428 324.40732422 7.8544873 323.59199219 7.43139648 322.75195312 C6.17915249 320.50294538 4.77147064 318.52334557 3.1796875 316.50390625 C2.50759868 345.26930784 5.22449813 373.03170122 17.1796875 399.50390625 C17.70304687 400.67308594 18.22640625 401.84226562 18.765625 403.046875 C24.9133707 416.04950146 33.24944925 427.13193142 43.1796875 437.50390625 C44.20449219 438.62345703 44.20449219 438.62345703 45.25 439.765625 C65.53445623 461.21026231 94.78975445 472.77036204 123.1796875 478.50390625 C123.96698242 478.66761719 124.75427734 478.83132813 125.56542969 479 C152.06226698 484.2451817 181.69594776 483.1563848 208.1796875 478.50390625 C209.0164502 478.35985352 209.85321289 478.21580078 210.71533203 478.06738281 C215.21840778 477.28168295 219.70341961 476.43207356 224.1796875 475.50390625 C226.5711072 426.7898012 209.59010624 370.44604725 177.1796875 333.50390625 C176.46167969 332.653125 175.74367188 331.80234375 175.00390625 330.92578125 C171.13206871 326.44187703 167.03852887 322.20421146 162.6796875 318.19140625 C161.844375 317.41152344 161.0090625 316.63164062 160.1484375 315.828125 C156.76959453 314.3209832 156.21658287 314.48517631 152.8515625 315.58984375 C151.28734504 316.21069127 149.72983347 316.84871514 148.1796875 317.50390625 C146.82375517 318.00166773 145.46443556 318.49031924 144.1015625 318.96875 C143.08715088 319.33009033 143.08715088 319.33009033 142.05224609 319.69873047 C131.29210323 323.46366658 120.41035883 325.64381587 109.1796875 327.50390625 C112.5514798 330.28319157 115.99455093 332.72269989 119.6796875 335.06640625 C129.73800878 341.74305055 141.1395676 349.81052177 147.1796875 360.50390625 C147.37890625 363.29296875 147.37890625 363.29296875 147.1796875 365.50390625 C144.9921875 366.31640625 144.9921875 366.31640625 142.1796875 366.50390625 C139.66901501 364.45572606 137.81171704 362.29707647 135.80078125 359.7734375 C125.9472529 347.79609102 112.65819917 339.90748259 99.1875 332.60009766 C97.53740405 331.69920626 95.91639264 330.74524276 94.3046875 329.77734375 C89.70295279 327.90213686 85.09842007 327.60961665 80.1796875 327.12890625 C69.11105941 325.90763989 58.48525023 323.73330634 47.68066406 321.08935547 C43.53556893 320.11903742 39.3599592 319.30686167 35.1796875 318.50390625 C38.69040671 322.09852132 42.33328665 325.45594578 46.1796875 328.69140625 C46.74510254 329.16843994 47.31051758 329.64547363 47.89306641 330.13696289 C52.22881867 333.76729991 56.66234375 337.24264592 61.16430664 340.66503906 C65.36613612 343.86201509 69.50157421 347.13430209 73.6171875 350.44140625 C78.47301368 354.34126306 83.34219125 358.22215334 88.2421875 362.06640625 C88.81718994 362.51765869 89.39219238 362.96891113 89.98461914 363.43383789 C92.8558242 365.68554991 95.72975961 367.9337316 98.60546875 370.1796875 C104.87042393 375.0792949 111.08212117 380.03537894 117.2421875 385.06640625 C122.14946218 389.07292261 127.08899688 393.02505298 132.1171875 396.87890625 C133.15101563 397.67425781 134.18484375 398.46960938 135.25 399.2890625 C137.1417181 400.71920138 139.05226542 402.12491922 140.984375 403.5 C142.22574219 404.39912109 142.22574219 404.39912109 143.4921875 405.31640625 C144.21019531 405.81785156 144.92820312 406.31929688 145.66796875 406.8359375 C147.1796875 408.50390625 147.1796875 408.50390625 147.47265625 411.140625 C147.1796875 413.50390625 147.1796875 413.50390625 146.1796875 414.50390625 C142.38344593 415.20742992 141.13993984 414.47676035 137.90234375 412.265625 C136.6725164 411.25263784 135.45299209 410.22705607 134.2421875 409.19140625 C132.90162699 408.08132403 131.56046766 406.97196459 130.21875 405.86328125 C129.54360352 405.29931641 128.86845703 404.73535156 128.17285156 404.15429688 C125.19919913 401.6920369 122.16148112 399.31532545 119.1171875 396.94140625 C117.95689022 396.0314298 116.79673393 395.12127354 115.63671875 394.2109375 C113.34401601 392.41465306 111.04935805 390.62089445 108.75390625 388.828125 C101.7948257 383.38566586 94.91315924 377.85851702 88.07080078 372.27001953 C82.96226792 368.10984375 77.7628242 364.09204017 72.5234375 360.09765625 C68.68081689 357.14179424 64.93221538 354.07278061 61.1796875 351.00390625 C56.37791881 347.07777768 51.54976046 343.20210187 46.6171875 339.44140625 C41.86047432 335.81190426 37.16061584 332.12125413 32.4921875 328.37890625 C31.8621582 327.87447998 31.23212891 327.37005371 30.58300781 326.8503418 C27.73708927 324.56831465 24.89863622 322.27821419 22.078125 319.96484375 C21.18351562 319.23523438 20.28890625 318.505625 19.3671875 317.75390625 C18.59761719 317.1196875 17.82804687 316.48546875 17.03515625 315.83203125 C15.28893845 314.30989039 15.28893845 314.30989039 13.1796875 314.50390625 Z " fill="#A77BD7" transform="translate(255.8203125,10.49609375)"/>
</svg>
